HIERARCHY
ROOT Hips
{
	OFFSET 0.00000 0.00000 0.00000
	CHANNELS 6 Xposition Yposition Zposition Yrotation Zrotation Xrotation 
	JOINT Lumbar
	{
		OFFSET 0 0 0
		CHANNELS 3 Zrotation Xrotation Yrotation
		JOINT Neck
		{
			OFFSET 0.00 0.2701 0.00
			CHANNELS 3 Zrotation Xrotation Yrotation
			End Site
			{
				OFFSET 0.00 0.1379 0.00
			}
		}
		JOINT RightShoulder
		{
			OFFSET 0.0119 0.2289 0.1181
			CHANNELS 3 Zrotation Xrotation Yrotation
			JOINT RightElbow
			{
				OFFSET 0.00 -0.1475 0.00
				CHANNELS 2 Zrotation Yrotation
				JOINT RightWrist
				{
					OFFSET 0.00 -0.1605 0.00
					CHANNELS 2 Zrotation Xrotation
					End Site
					{
						OFFSET 0.0040 -0.1068 0.0006
					}
				}
			}
		}
		JOINT LeftShoulder
		{
			OFFSET 0.0119 0.2289 -0.1181
			CHANNELS 3 Zrotation Xrotation Yrotation
			JOINT LeftElbow
			{
				OFFSET 0.00 -0.1475 0.00
				CHANNELS 2 Zrotation Yrotation
				JOINT LeftWrist
				{
					OFFSET 0.00 -0.1605 0.00
					CHANNELS 2 Zrotation Xrotation
					End Site
					{
						OFFSET 0.0040 -0.1068 -0.0006
					}
				}
			}
		}
	}
	JOINT RightHip
	{
		OFFSET 0.0316 -0.0424 0.0458
		CHANNELS 3 Zrotation Xrotation Yrotation
		JOINT RightKnee
		{
			OFFSET 0.00 -0.2438 0.00
			CHANNELS 1 Zrotation
			JOINT RightAnkle
			{
				OFFSET 0.00 -0.2449 0.00
				CHANNELS 3 Zrotation Xrotation Yrotation
				End Site
				{
					OFFSET 0.1237 -0.0542 0.0051
				}
			}
		}
	}
	JOINT LeftHip
	{
		OFFSET 0.0316 -0.0424 -0.0458
		CHANNELS 3 Zrotation Xrotation Yrotation
		JOINT LeftKnee
		{
			OFFSET 0.00 -0.2438 0.00
			CHANNELS 1 Zrotation
			JOINT LeftAnkle
			{
				OFFSET 0.00 -0.2449 0.00
				CHANNELS 3 Zrotation Xrotation Yrotation
				End Site
				{
					OFFSET 0.1237 -0.0542 -0.0051
				}
			}
		}
	}
}
MOTION
Frames: 14
Frame Time: 0.02
-0.38648 0.58276 -0.00244 178.90693 0 -4.20676 7.39252 3.1605 0.50484 -30.20398 -0.97385 -1.59616 131.34401 -55.64782 44.86193 37.52382 135.95329 -34.14077 -11.97404 35.97979 101.94836 35.67847 50.74443 -103.90011 -48.44122 5.65271 3.83151 -0.08041 0.67756 -13.60004 -14.82819 -1.72294 -14.06479 -6.38778 2.1363 10.47408 -2.42191 -6.83278 3.0857 7.06347
-0.38595 0.58274 -0.00402 177.13505 0 -4.32826 7.21038 3.2304 0.50897 -30.02783 -0.82232 -1.45142 131.42255 -55.47343 45.45068 37.65034 135.91012 -34.19717 -11.94643 35.6376 101.43266 35.75841 50.74554 -103.82593 -48.40338 5.6431 4.11743 0.08407 -0.64658 -13.61601 -14.27979 -1.8196 -14.05293 -6.57727 2.19133 11.75849 -2.36832 -6.77066 3.15715 7.4153
-0.38548 0.5828 -0.00579 175.37836 0 -4.47413 7.0176 3.31522 0.51854 -29.88434 -0.64687 -1.28111 131.6102 -55.39638 46.15097 37.91799 135.85037 -34.23365 -11.91629 35.47172 100.86924 35.70991 50.85506 -103.73879 -48.41151 5.63024 4.46704 0.24562 -2.5119 -13.86584 -13.64815 -1.92427 -14.11228 -6.73248 2.28275 13.02527 -2.39129 -6.70443 3.23949 7.78731
-0.385 0.58282 -0.00749 173.63068 0 -4.60654 6.83025 3.38957 0.51569 -29.74204 -0.48086 -1.12499 131.77472 -55.29099 46.80625 38.14696 135.80687 -34.3123 -11.88592 35.29891 100.32993 35.67098 50.94801 -103.67205 -48.41223 5.62008 4.78415 0.40714 -4.13477 -14.01359 -13.089 -2.0181 -14.146 -6.90287 2.35887 14.28867 -2.38166 -6.6388 3.31414 8.147
-0.38445 0.58287 -0.0091 171.81083 0 -4.74924 6.64004 3.4805 0.55673 -29.54192 -0.3167 -0.95528 131.84736 -55.11045 47.45276 38.27771 135.73522 -34.26499 -11.86172 34.85439 99.7708 35.81616 50.91558 -103.54849 -48.35769 5.60516 5.11602 0.57334 -5.75949 -14.14205 -12.38364 -2.14191 -14.15233 -7.07545 2.42866 15.60467 -2.36194 -6.57703 3.40029 8.51997
-0.38406 0.58288 -0.01096 170.14777 0 -4.87604 6.45429 3.53969 0.50671 -29.46261 -0.14557 -0.80919 132.12545 -55.11128 48.12941 38.6332 135.70951 -34.45683 -11.82439 34.97876 99.2495 35.57296 51.15644 -103.53264 -48.42607 5.59874 5.43074 0.73059 -7.49229 -14.36373 -11.96106 -2.20599 -14.23021 -7.23503 2.52116 16.80454 -2.38259 -6.50736 3.46524 8.86989
-0.38406 0.58278 -0.01345 168.9025 0 -4.95511 6.27254 3.51219 0.20632 -29.75363 0.05162 -0.73059 132.99738 -55.60586 48.97391 39.69814 135.88424 -35.48116 -11.74555 36.94086 98.79036 34.07154 52.2347 -103.89129 -48.85351 5.6227 5.7025 0.8505 -9.51914 -14.82393 -12.36382 -2.0951 -14.51315 -7.36883 2.66218 17.69595 -2.48503 -6.41045 3.46717 9.15306
-0.38422 0.58265 -0.01622 167.81726 0 -5.01704 6.09772 3.45143 -0.18661 -30.15624 0.25285 -0.67781 134.06078 -56.27772 49.82585 40.96318 136.09413 -36.7192 -11.65444 39.41461 98.38 32.22115 53.56438 -104.34647 -49.39777 5.65431 5.95117 0.96405 -11.61262 -15.36337 -13.04983 -1.92527 -14.86115 -7.4906 2.82603 18.46914 -2.62722 -6.30722 3.44763 9.41173
-0.38432 0.58255 -0.0189 166.66674 0 -5.08526 5.92659 3.40261 -0.53897 -30.47719 0.44267 -0.61607 134.99882 -56.85896 50.59698 42.05403 136.23986 -37.74557 -11.57279 41.44394 97.98562 30.67764 54.70576 -104.70782 -49.86809 5.67831 6.19791 1.08913 -13.58954 -15.84224 -13.59062 -1.78771 -15.16318 -7.61637 2.98282 19.29062 -2.75868 -6.21102 3.43924 9.68086
-0.38435 0.58241 -0.0214 165.48502 0 -5.16019 5.72563 3.36711 -0.88476 -30.92872 0.67116 -0.54135 136.10067 -57.48635 51.68835 43.49492 136.58159 -39.24089 -11.4751 44.35611 97.43554 28.51757 56.15983 -105.2748 -50.42681 5.71923 6.50022 1.17731 -15.94509 -16.43319 -14.19809 -1.62737 -15.53691 -7.74614 3.12627 20.13421 -2.8629 -6.09647 3.42573 9.95484
-0.38458 0.58232 -0.02434 164.4064 0 -5.21736 5.5893 3.29656 -1.26639 -31.13597 0.82306 -0.50056 136.90803 -58.05786 52.12633 44.26032 136.53223 -39.82794 -11.40742 45.57128 97.21306 27.54291 57.02558 -105.44262 -50.83006 5.72727 6.67932 1.34126 -17.52655 -16.80604 -14.73505 -1.50026 -15.77583 -7.86642 3.30323 20.90425 -3.03099 -6.01949 3.41715 10.21101
-0.38529 0.58239 -0.02836 163.57016 0 -5.22422 5.62349 3.13031 -1.72309 -30.62759 0.73346 -0.54352 136.83138 -58.43675 50.64195 43.04221 135.32091 -37.70273 -11.43053 41.78303 97.96058 30.07645 56.16461 -104.43435 -50.7617 5.63837 6.53385 1.71291 -16.89744 -16.56036 -15.00817 -1.48014 -15.62825 -7.95232 3.56033 21.49608 -3.37802 -6.04076 3.43156 10.43885
-0.3862 0.58252 -0.03281 162.8321 0 -5.21459 5.72358 2.93112 -2.21255 -29.87248 0.57175 -0.62035 136.45605 -58.75164 48.52034 41.14934 133.72895 -34.68337 -11.48368 36.30742 99.022 33.78553 54.71037 -103.0316 -50.53479 5.51702 6.26325 2.16168 -15.49242 -16.09098 -15.20084 -1.49512 -15.34352 -8.03098 3.85141 22.01815 -3.78625 -6.10117 3.45092 10.64757
-0.38704 0.58262 -0.03709 162.05189 0 -5.21612 5.79779 2.75161 -2.68837 -29.23848 0.46216 -0.68445 136.23209 -59.09235 46.76686 39.61046 132.35898 -32.17463 -11.51952 31.72545 99.8892 36.86182 53.55323 -101.84109 -50.38972 5.41321 6.04275 2.57706 -14.48014 -15.72044 -15.43082 -1.49374 -15.11829 -8.12084 4.13124 22.57576 -4.15682 -6.14858 3.46513 10.85414
